REM MD5 f2d3ec50b349c54a56c62db7e59363d8
FILE "Official U.S. PlayStation Magazine Demo Disc 34 (USA).bin" BINARY
  TRACK 01 MODE2/2352
    INDEX 01 00:00:00
  TRACK 02 AUDIO
    INDEX 00 34:28:41
    INDEX 01 34:30:41
  TRACK 03 AUDIO
    INDEX 00 36:15:71
    INDEX 01 36:17:71
REM LEADOUT 36:23:67
